<?xml version="1.0" encoding="utf-8"?>
<!-- Generator: Adobe Illustrator 21.0.2, SVG Export Plug-In . SVG Version: 6.00 Build 0)  -->
<svg version="1.1" id="Layer_1" xmlns="http://www.w3.org/2000/svg" xmlns:xlink="http://www.w3.org/1999/xlink" x="0px" y="0px"
	 viewBox="0 0 116 30" style="enable-background:new 0 0 116 30;" xml:space="preserve">
<style type="text/css">
	.st0{fill:#FFFFFF;}
</style>
<g>
	<path class="st0" d="M31.2,0h-4.5c-0.3,0-0.4,0.4-0.1,0.5c1.2,0.5,2.3,1.2,3.2,2.2c0.9,0.9,1.6,1.9,2,3.1C32,6.1,32.4,6,32.4,5.7
		V1.2C32.4,0.5,31.9,0,31.2,0"/>
	<path class="st0" d="M31.9,13c-1.3,2.8-4.1,4.7-7.4,4.7h-0.1c-3.7,0-6.7-3.1-6.7-6.8c0-2.8,2.1-5.1,4.7-5.6c0.3,0,0.5,0.2,0.5,0.4
		v1.9c0,0.2-0.1,0.4-0.3,0.4c-1.2,0.3-2.1,1.5-2.1,2.8c0,2.2,1.8,4,3.9,4c2.9,0,5.4-2.3,5.4-5.3c0-1.9-0.7-3.6-2-5
		c-1.3-1.3-3.1-2.1-4.9-2.1c-2.5,0-4.7,0.9-6.5,2.6c-1.7,1.7-2.8,4-2.8,6.4c-0.1,6.1,4.5,11.2,10.5,11.8c0.2,0,0.4,0.2,0.4,0.4v1.9
		c0,0.3-0.2,0.5-0.5,0.4c-7.4-0.7-13.2-7-13.2-14.6c0.1-5,3.3-9.3,7.7-11C18.9,0.4,18.9,0,18.5,0H1.9C1.2,0,0.7,0.5,0.7,1.2v27.6
		c0,0.7,0.5,1.2,1.2,1.2h12.6c0.3,0,0.4-0.4,0.1-0.5c-1.5-0.9-2.8-2-4.1-3.2c-3.9-4-6-9.2-6.1-14.7c0-0.2,0.2-0.5,0.5-0.5h1.9
		c0.3,0,0.5,0.2,0.5,0.5c0,4.8,1.9,9.4,5.3,12.8C16,27.8,21.4,30,25.6,30h5.6c0.7,0,1.2-0.5,1.2-1.2V13.1C32.4,12.8,32,12.7,31.9,13
		"/>
	<path class="st0" d="M57.8,23.9l-0.2,0c-0.6,0-1-0.1-1.4-0.3c-0.4-0.2-0.7-0.5-1-0.9c-0.3-0.4-0.5-0.8-0.7-1.3
		c-0.2-0.5-0.4-1-0.5-1.6c-0.1-0.4-0.3-0.9-0.5-1.3c-0.2-0.5-0.4-0.9-0.6-1.3c-0.2-0.4-0.5-0.8-0.9-1.1c-0.3-0.3-0.8-0.6-1.2-0.8
		c0.3-0.1,0.6-0.3,0.8-0.5c0.2-0.2,0.4-0.4,0.6-0.7c0.3-0.4,0.5-0.9,0.7-1.5c0.2-0.6,0.4-1.1,0.6-1.7c0.2-0.5,0.4-1.1,0.7-1.5
		c0.3-0.5,0.6-0.9,1-1.1c0.3-0.2,0.5-0.3,0.9-0.3c0.3-0.1,0.6-0.1,0.9-0.1c0.2,0,0.3,0,0.4-0.1c0.1,0,0.1-0.2,0.1-0.4l0-1.6
		c0-0.2,0-0.3-0.1-0.3c-0.1,0-0.2-0.1-0.4-0.1c-0.7,0-1.4,0-2,0.1C54.5,5.6,54,5.8,53.5,6c-0.6,0.3-1.1,0.8-1.4,1.3
		c-0.4,0.6-0.7,1.2-0.9,1.8c-0.3,0.7-0.5,1.3-0.7,2c-0.2,0.7-0.5,1.3-0.8,1.8c-0.3,0.5-0.5,0.8-0.9,1c-0.3,0.2-0.8,0.3-1.4,0.3
		l-1.2,0l0.1-8.5c0-0.2,0-0.3-0.1-0.4c-0.1-0.1-0.2-0.1-0.4-0.1l-4.3,0c-0.2,0-0.3,0.1-0.3,0.3l0,1.2c0,0.1,0,0.2,0,0.2
		c0,0.1,0.1,0.1,0.2,0.1l1.8,0.6l-0.1,17.8c0,0.2,0,0.3,0.1,0.3c0,0.1,0.2,0.1,0.3,0.1l2.2,0c0.2,0,0.3,0,0.3-0.1
		c0-0.1,0.1-0.2,0.1-0.3l0.1-8.9l1.4,0c0.6,0,1.1,0.1,1.5,0.3c0.4,0.2,0.8,0.5,1,0.9c0.3,0.4,0.5,0.8,0.7,1.3c0.2,0.5,0.4,1,0.5,1.5
		c0.3,0.9,0.6,1.6,0.9,2.3c0.3,0.7,0.7,1.3,1.2,1.8c0.5,0.5,1,0.9,1.7,1.1c0.7,0.3,1.5,0.4,2.4,0.4c0.2,0,0.4,0,0.5-0.1
		c0.1,0,0.2-0.2,0.2-0.3l0-1.5c0-0.2,0-0.3-0.1-0.4C58.1,23.9,58,23.9,57.8,23.9 M75.3,8.2c-0.7-0.9-1.5-1.7-2.6-2.2
		c-1.1-0.5-2.4-0.8-3.9-0.8c-1.5,0-2.9,0.2-3.9,0.8c-1.1,0.5-2,1.2-2.6,2.2c-0.7,0.9-1.2,2-1.5,3.3c-0.3,1.3-0.5,2.7-0.5,4.2
		c0,1.5,0.1,2.8,0.3,3.9c0.2,1.1,0.6,2.1,1,2.9c0.4,0.8,0.9,1.5,1.4,2c0.5,0.5,1.1,0.9,1.8,1.2c0.6,0.3,1.3,0.5,1.9,0.6
		c0.7,0.1,1.3,0.2,1.9,0.2l0.2,0c0.6,0,1.3-0.1,1.9-0.2c0.7-0.1,1.3-0.3,1.9-0.6c0.6-0.3,1.2-0.7,1.8-1.2c0.6-0.5,1-1.2,1.5-2
		c0.4-0.8,0.7-1.8,1-2.9c0.2-1.1,0.4-2.4,0.4-3.9c0-1.5-0.1-2.9-0.4-4.2C76.5,10.3,76,9.1,75.3,8.2 M73.9,18.9
		c-0.2,0.9-0.4,1.6-0.6,2.3c-0.3,0.6-0.6,1.1-0.9,1.5c-0.4,0.4-0.7,0.7-1.1,0.9c-0.4,0.2-0.8,0.4-1.2,0.4c-0.4,0.1-0.8,0.1-1.2,0.1
		c-0.4,0-0.8,0-1.2-0.1c-0.4-0.1-0.8-0.2-1.2-0.4c-0.4-0.2-0.8-0.5-1.1-0.9c-0.3-0.4-0.7-0.9-0.9-1.5c-0.3-0.6-0.5-1.4-0.6-2.3
		c-0.1-0.9-0.2-2-0.2-3.2c0-1.1,0.1-2.1,0.3-3.1c0.2-1,0.4-1.9,0.9-2.6c0.4-0.7,1-1.3,1.7-1.8c0.7-0.4,1.6-0.6,2.6-0.6
		c1.1,0,1.9,0.2,2.6,0.7c0.7,0.4,1.2,1,1.6,1.8c0.4,0.8,0.7,1.6,0.8,2.6c0.2,1,0.2,2,0.2,3.1C74.1,17,74,18,73.9,18.9 M96.2,24.1
		c-0.4,0-0.7-0.1-1-0.2c-0.3-0.1-0.6-0.4-0.8-0.7c-0.3-0.3-0.5-0.8-0.8-1.4c-0.3-0.6-0.6-1.3-0.9-2.2c-0.1-0.4-0.3-0.8-0.5-1.1
		c-0.2-0.3-0.4-0.6-0.6-0.8c-0.2-0.2-0.4-0.4-0.7-0.5c-0.2-0.1-0.4-0.2-0.6-0.3c0.1,0,0.3-0.1,0.5-0.2c0.2-0.1,0.4-0.1,0.6-0.2
		c1.2-0.5,2-1.2,2.6-2.1c0.6-0.9,0.9-1.9,0.9-3.1c0-1.9-0.6-3.4-1.9-4.3c-1.3-1-3.3-1.4-6-1.5c-0.6,0-6.1,0-6.5,0l-0.3,0
		c-0.2,0-0.3,0.1-0.3,0.3l0,1.2c0,0.2,0.1,0.3,0.3,0.3l1.8,0.7l-0.1,17.7c0,0.2,0,0.3,0.1,0.3c0,0.1,0.2,0.1,0.3,0.1l2.2,0
		c0.2,0,0.3,0,0.3-0.1c0-0.1,0.1-0.2,0.1-0.3l0.1-8.3l1.1,0c0.7,0,1.2,0.1,1.7,0.3c0.5,0.2,0.9,0.5,1.3,0.8c0.4,0.3,0.7,0.8,0.9,1.2
		c0.2,0.5,0.5,1,0.7,1.6c0.2,0.6,0.5,1.3,0.8,1.9c0.3,0.6,0.7,1.1,1.1,1.6c0.4,0.5,1,0.8,1.6,1.1c0.6,0.3,1.4,0.4,2.2,0.4
		c0.3,0,0.5-0.1,0.5-0.2c0.1-0.1,0.1-0.2,0.1-0.4l0-1.3c0-0.2,0-0.3-0.1-0.4C96.5,24.2,96.4,24.1,96.2,24.1 M88.8,15.1
		c-0.6,0.2-1.3,0.3-2,0.3l-2.1,0l0-7.4c0.4,0,2,0,2.4,0c0.6,0,1.1,0.1,1.7,0.1c0.5,0.1,1,0.3,1.4,0.5c0.4,0.3,0.8,0.6,1,1.1
		c0.2,0.5,0.4,1.1,0.4,1.8c0,0.6-0.1,1.1-0.3,1.6c-0.2,0.5-0.5,0.9-0.9,1.2C89.9,14.6,89.4,14.9,88.8,15.1 M114.9,5.8l-2.2,0
		c-0.2,0-0.3,0-0.3,0.1c0,0.1-0.1,0.2-0.1,0.3l-0.1,12.8c0,0.9-0.1,1.6-0.3,2.3c-0.2,0.7-0.5,1.2-0.9,1.6c-0.4,0.4-0.9,0.8-1.5,1
		c-0.6,0.2-1.2,0.3-1.9,0.3c-0.7,0-1.3-0.1-1.9-0.4c-0.6-0.2-1-0.6-1.4-1.1c-0.4-0.5-0.7-1-0.9-1.7c-0.2-0.7-0.3-1.4-0.3-2.3
		l0.1-12.6c0-0.2,0-0.3-0.1-0.4c-0.1-0.1-0.2-0.1-0.4-0.1l-4.3,0c-0.2,0-0.3,0.1-0.3,0.3l0,1.2c0,0.2,0.1,0.3,0.3,0.3l1.8,0.6
		l-0.1,10.5c0,1.3,0.2,2.5,0.5,3.5c0.3,1,0.8,1.9,1.5,2.5c0.6,0.7,1.4,1.2,2.3,1.6c0.9,0.4,2,0.5,3.1,0.6c1.2,0,2.2-0.2,3.2-0.5
		c0.9-0.4,1.8-0.9,2.4-1.6c0.7-0.7,1.2-1.5,1.5-2.5c0.4-1,0.5-2.1,0.6-3.4l0.1-12.5c0-0.1,0-0.3-0.1-0.3
		C115.2,5.9,115.1,5.8,114.9,5.8"/>
</g>
</svg>
